<svg xmlns="http://www.w3.org/2000/svg" style="display: none;">
  
    <symbol id="icon-bars" viewBox="0 0 512 512">
      <path d="m475 384l0 37c0 5-1 9-5 12-4 4-8 6-13 6l-402 0c-5 0-9-2-13-6-4-3-5-7-5-12l0-37c0-5 1-9 5-13 4-3 8-5 13-5l402 0c5 0 9 2 13 5 4 4 5 8 5 13z m0-146l0 36c0 5-1 10-5 13-4 4-8 6-13 6l-402 0c-5 0-9-2-13-6-4-3-5-8-5-13l0-36c0-5 1-10 5-13 4-4 8-6 13-6l402 0c5 0 9 2 13 6 4 3 5 8 5 13z m0-147l0 37c0 5-1 9-5 13-4 3-8 5-13 5l-402 0c-5 0-9-2-13-5-4-4-5-8-5-13l0-37c0-5 1-9 5-12 4-4 8-6 13-6l402 0c5 0 9 2 13 6 4 3 5 7 5 12z"/>
    </symbol>
  
    <symbol id="icon-cancel" viewBox="0 0 512 512">
      <path d="m367 336c6 6 9 13 9 22c0 8-3 16-9 22c-6 5-13 8-22 8c-8 0-16-3-22-8c0 0-68-78-68-78c0 0-67 78-67 78c-6 5-14 8-22 8c-9 0-16-3-22-8c-6-6-8-14-8-22c0-9 2-16 8-22c0 0 71-80 71-80c0 0-71-81-71-81c-6-6-8-13-8-22c0-8 2-16 8-22c6-5 13-8 22-8c8 0 16 3 22 8c0 0 67 78 67 78c0 0 68-78 68-78c6-5 14-8 22-8c9 0 16 3 22 8c6 6 9 14 9 22c0 9-3 16-9 22c0 0-71 81-71 81c0 0 71 80 71 80"/>
    </symbol>
  
    <symbol id="icon-camera" viewBox="0 0 512 512">
      <path d="m256 192c23 0 42 8 58 24 16 16 24 36 24 58 0 23-8 42-24 58-16 17-35 25-58 25-23 0-42-8-58-25-16-16-24-35-24-58 0-22 8-42 24-58 16-16 35-24 58-24z m201-119c20 0 38 7 52 22 14 14 21 31 21 51l0 256c0 20-7 38-21 52-14 14-32 21-52 21l-402 0c-20 0-38-7-52-21-14-14-21-32-21-52l0-256c0-20 7-37 21-51 14-15 32-22 52-22l64 0 14-39c4-9 11-17 20-24 10-7 20-10 30-10l146 0c10 0 20 3 30 10 9 7 16 15 20 24l14 39z m-201 329c35 0 65-12 90-37 25-25 38-55 38-91 0-35-13-65-38-90-25-25-55-38-90-38-35 0-65 13-90 38-25 25-38 55-38 90 0 36 13 66 38 91 25 25 55 37 90 37z"/>
    </symbol>
  
    <symbol id="icon-video-camera" viewBox="0 0 512 512">
      <path d="m512 101l0 310c0 8-4 14-11 17-3 1-5 2-7 2-5 0-10-2-13-6l-115-115 0 48c0 22-8 42-24 58-17 16-36 24-59 24l-201 0c-22 0-42-8-58-24-16-16-24-36-24-58l0-202c0-22 8-42 24-58 16-16 36-24 58-24l201 0c23 0 42 8 59 24 16 16 24 36 24 58l0 48 115-115c3-4 8-6 13-6 2 0 4 1 7 2 7 3 11 9 11 17z"/>
    </symbol>
  
    <symbol id="icon-calendar" viewBox="0 0 512 512">
      <path d="m55 475l82 0 0-82-82 0z m100 0l92 0 0-82-92 0z m-100-100l82 0 0-92-82 0z m100 0l92 0 0-92-92 0z m-100-110l82 0 0-82-82 0z m210 210l92 0 0-82-92 0z m-110-210l92 0 0-82-92 0z m220 210l82 0 0-82-82 0z m-110-100l92 0 0-92-92 0z m-100-247l0-82c0-3-1-5-3-7-2-2-4-2-7-2l-18 0c-2 0-4 0-6 2-2 2-3 4-3 7l0 82c0 2 1 5 3 6 2 2 4 3 6 3l18 0c3 0 5-1 7-3 2-1 3-4 3-6z m210 247l82 0 0-92-82 0z m-110-110l92 0 0-82-92 0z m110 0l82 0 0-82-82 0z m9-137l0-82c0-3-1-5-3-7-2-2-4-2-6-2l-18 0c-3 0-5 0-7 2-2 2-3 4-3 7l0 82c0 2 1 5 3 6 2 2 4 3 7 3l18 0c2 0 4-1 6-3 2-1 3-4 3-6z m110-18l0 365c0 10-4 19-11 26-7 7-16 11-26 11l-402 0c-10 0-19-4-26-11-7-7-11-16-11-26l0-365c0-10 4-19 11-26 7-7 16-11 26-11l36 0 0-27c0-13 5-24 14-33 9-9 20-13 32-13l18 0c13 0 24 4 33 13 9 9 13 20 13 33l0 27 110 0 0-27c0-13 4-24 13-33 9-9 20-13 33-13l18 0c12 0 23 4 32 13 9 9 14 20 14 33l0 27 36 0c10 0 19 4 26 11 7 7 11 16 11 26z"/>
    </symbol>
  
    <symbol id="icon-heart" viewBox="0 0 512 512">
      <path d="m256 475c-5 0-9-1-13-5l-178-172c-2-1-4-4-8-7-3-4-8-10-16-19-7-9-13-18-19-28-6-9-11-21-15-34-5-14-7-27-7-40 0-42 12-74 36-98 24-24 58-35 101-35 11 0 23 2 36 6 12 4 23 9 34 16 11 7 20 14 27 20 8 6 15 12 22 19 7-7 14-13 22-19 7-6 16-13 27-20 11-7 22-12 34-16 13-4 25-6 36-6 43 0 77 11 101 35 24 24 36 56 36 98 0 42-22 85-65 129l-178 171c-4 4-8 5-13 5z"/>
    </symbol>
  
    <symbol id="icon-home" viewBox="0 0 512 512">
      <path d="m421 283l0 138c0 5-2 9-6 12-3 4-8 6-13 6l-109 0 0-110-74 0 0 110-109 0c-5 0-10-2-13-6-4-3-6-7-6-12l0-138c0 0 0 0 0 0 0-1 0-1 0-1l164-136 165 136c0 0 0 1 0 1z m63-19l-17 21c-2 2-4 3-6 3l-1 0c-3 0-5-1-6-2l-198-165-198 165c-2 2-4 2-7 2-2 0-4-1-6-3l-17-21c-2-2-2-4-2-7 0-3 1-5 3-6l205-171c6-5 14-8 22-8 8 0 16 3 22 8l69 58 0-56c0-2 1-5 3-6 2-2 4-3 7-3l54 0c3 0 5 1 7 3 2 1 3 4 3 6l0 117 62 52c2 1 3 3 3 6 0 3 0 5-2 7z"/>
    </symbol>
  
    <symbol id="icon-cart-plus" viewBox="0 0 512 512">
      <path d="m366 201c0-5-2-9-6-13-3-3-8-5-13-5l-36 0 0-37c0-5-2-9-6-13-3-3-7-5-12-5-5 0-10 2-13 5-4 4-6 8-6 13l0 37-36 0c-5 0-10 2-13 5-4 4-6 8-6 13 0 5 2 9 6 13 3 4 8 5 13 5l36 0 0 37c0 5 2 9 6 13 3 3 8 5 13 5 5 0 9-2 12-5 4-4 6-8 6-13l0-37 36 0c5 0 10-1 13-5 4-4 6-8 6-13z m-165 238c0 10-3 19-11 26-7 7-15 10-25 10-11 0-19-3-26-10-7-7-11-16-11-26 0-10 4-19 11-26 7-7 15-11 26-11 10 0 18 4 25 11 8 7 11 16 11 26z m256 0c0 10-3 19-11 26-7 7-15 10-25 10-11 0-19-3-26-10-7-7-11-16-11-26 0-10 4-19 11-26 7-7 15-11 26-11 10 0 18 4 25 11 8 7 11 16 11 26z m37-311l0 146c0 5-2 9-5 12-3 4-7 6-12 7l-298 34c0 2 1 4 1 7 1 2 2 5 2 7 1 2 1 5 1 6 0 3-2 10-7 19l263 0c5 0 9 2 13 5 3 4 5 8 5 13 0 5-2 9-5 13-4 3-8 5-13 5l-293 0c-5 0-9-2-13-5-3-4-5-8-5-13 0-3 1-6 3-11 2-5 5-11 9-17 3-7 5-10 5-11l-50-235-58 0c-5 0-10-2-13-6-4-3-6-8-6-13 0-5 2-9 6-12 3-4 8-6 13-6l73 0c3 0 5 1 8 2 2 1 4 3 6 4 1 2 2 4 3 7 1 3 2 6 2 8 1 2 1 5 2 8 1 4 1 6 1 8l343 0c5 0 10 2 13 5 4 4 6 8 6 13z"/>
    </symbol>
  
    <symbol id="icon-gift" viewBox="0 0 512 512">
      <path d="m302 387l0-204-92 0 0 204c0 5 2 9 5 11 4 3 8 4 14 4l54 0c6 0 10-1 14-4 3-2 5-6 5-11z m-131-241l56 0-36-46c-5-6-11-9-20-9-7 0-14 3-19 8-5 6-8 12-8 20 0 7 3 14 8 19 5 6 12 8 19 8z m197-27c0-8-3-14-8-20-5-5-12-8-19-8-9 0-15 3-20 9l-36 46 56 0c7 0 14-2 19-8 5-5 8-12 8-19z m107 73l0 91c0 3 0 5-2 7-2 2-4 3-7 3l-27 0 0 118c0 8-3 15-8 20-5 5-12 8-20 8l-310 0c-8 0-15-3-20-8-5-5-8-12-8-20l0-118-27 0c-3 0-5-1-7-3-2-2-2-4-2-7l0-91c0-3 0-5 2-7 2-1 4-2 7-2l125 0c-17 0-32-6-45-19-12-12-19-27-19-45 0-18 7-33 19-45 13-13 28-19 45-19 21 0 37 7 48 22l37 47 37-47c11-15 27-22 48-22 17 0 32 6 45 19 12 12 19 27 19 45 0 18-7 33-19 45-13 13-28 19-45 19l125 0c3 0 5 1 7 2 2 2 2 4 2 7z"/>
    </symbol>
  
    <symbol id="icon-heart-o" viewBox="0 0 512 512">
      <path d="m475 170c0-15-2-29-6-41-4-11-9-21-15-28-7-7-15-12-24-17-9-4-18-7-27-9-8-1-18-2-28-2-9 0-20 3-32 7-11 5-22 11-31 19-10 7-18 14-25 20-7 7-12 13-17 18-3 4-8 6-14 6-6 0-11-2-14-6-5-5-10-11-17-18-7-6-15-13-25-20-9-8-20-14-31-19-12-4-23-7-32-7-10 0-20 1-28 2-9 2-18 5-27 9-9 5-17 10-24 17-6 7-11 17-15 28-4 12-6 26-6 41 0 32 17 66 53 102l166 160 166-160c36-36 53-70 53-102z m37 0c0 42-22 85-65 129l-178 171c-4 4-8 5-13 5-5 0-9-1-13-5l-178-172c-2-1-4-4-8-7-3-4-8-10-16-19-7-9-13-18-19-28-6-9-11-21-15-34-5-14-7-27-7-40 0-42 12-74 36-98 24-24 58-35 101-35 11 0 23 2 36 6 12 4 23 9 34 16 11 7 20 14 27 20 8 6 15 12 22 19 7-7 14-13 22-19 7-6 16-13 27-20 11-7 22-12 34-16 13-4 25-6 36-6 43 0 77 11 101 35 24 24 36 56 36 98z"/>
    </symbol>
  
    <symbol id="icon-bookmark" viewBox="0 0 512 512">
      <path d="m406 37c4 0 8 0 12 2 7 3 12 7 15 12 4 5 6 11 6 18l0 368c0 6-2 12-6 18-3 5-8 9-15 11-3 2-8 3-12 3-9 0-17-3-24-10l-126-121-126 121c-7 7-15 10-24 10-4 0-8-1-12-3-7-2-12-6-15-11-4-6-6-12-6-18l0-368c0-7 2-13 6-18 3-5 8-9 15-12 4-2 8-2 12-2z"/>
    </symbol>
  
    <symbol id="icon-bookmark-o" viewBox="0 0 512 512">
      <path d="m402 73l-292 0 0 355 121-116 25-24 25 24 121 116z m4-36c4 0 8 0 12 2 7 3 12 7 15 12 4 5 6 11 6 18l0 368c0 6-2 12-6 18-3 5-8 9-15 11-3 2-8 3-12 3-9 0-17-3-24-10l-126-121-126 121c-7 7-15 10-24 10-4 0-8-1-12-3-7-2-12-6-15-11-4-6-6-12-6-18l0-368c0-7 2-13 6-18 3-5 8-9 15-12 4-2 8-2 12-2z"/>
    </symbol>
  
    <symbol id="icon-amazon" viewBox="0 0 512 512">
      <path d="m443 422c3-1 5-2 8-1 2 0 3 2 3 5 0 3-2 6-5 9-2 3-6 8-12 13-6 5-15 12-27 19-13 8-26 15-41 21-14 7-32 12-53 17-22 5-44 7-66 7-23 0-45-3-68-9-23-6-43-13-60-22-17-8-33-18-49-29-16-12-28-22-38-30-9-9-17-18-24-25-1-2-2-4-3-5 0-2 0-3 1-4 0 0 1-1 2-2 1 0 2 0 3 0 1 0 2 0 3 1 37 22 66 38 86 48 74 33 150 42 228 25 37-7 74-20 112-38z m59-33c2 3 3 10 1 20-2 10-4 20-8 29-7 16-15 28-24 35-4 3-6 4-8 3-2-1-2-3 0-7 4-8 8-20 13-35 4-14 5-24 2-28-1-1-3-2-5-3-2-1-4-1-7-2-4 0-6 0-9 0-2-1-6-1-10 0-4 0-7 0-9 0-2 0-5 1-9 1-4 0-6 1-6 1-1 0-3 0-4 0-1 0-2 0-3 0-1 0-2 0-2 1-1 0-2 0-2-1l-3 0-1 0-1 0 0-1c-1-3 3-7 13-11 10-5 20-8 30-9 8-1 19-1 31 0 11 1 19 3 21 7z m-112-127c0 6 1 12 4 19 2 6 5 11 9 16 3 5 7 9 10 13 4 4 7 7 10 9l4 4-65 64c-8-7-15-15-23-22-7-7-13-13-16-17l-6-5c-2-3-4-6-7-10-7 11-17 21-28 29-11 9-23 15-36 19-13 3-27 6-40 6-14 1-27-1-40-6-12-4-23-11-33-19-10-7-18-18-24-32-6-13-9-29-9-46 0-16 3-31 8-44 6-14 12-25 21-34 8-8 18-16 30-23 12-7 24-13 35-17 12-3 24-7 37-9 14-3 25-5 35-6 9-1 18-1 28-2l0-36c0-12-2-21-6-28-6-10-18-15-35-15-1 0-2 0-4 1-2 0-6 1-12 3-6 2-11 5-16 8-5 4-10 10-16 17-6 8-10 17-14 28l-84-8c0-11 3-23 7-34 4-11 10-22 19-32 8-10 19-19 31-27 12-8 26-14 43-19 17-5 35-7 54-7 19 0 37 2 52 7 16 5 28 11 37 18 9 7 17 15 23 23 6 9 11 17 13 25 3 8 4 15 4 21z m-192 6c0 17 6 29 20 38 12 9 26 11 39 7 16-5 27-17 33-36 3-8 4-18 4-28l0-47c-11 1-22 2-32 4-10 2-20 5-30 9-11 5-19 12-25 21-6 9-9 20-9 32z"/>
    </symbol>
  
    <symbol id="icon-gratipay" viewBox="0 0 512 512">
      <path d="m257 372l100-135c3-4 6-10 7-17 2-7 1-15-1-24-3-9-9-17-18-23-7-5-15-7-24-7-8 0-15 2-21 5-5 3-11 7-15 13-7 7-16 11-28 11-11 0-20-4-27-11-4-6-9-10-15-13-6-3-13-5-21-5-8 0-16 2-24 7-9 6-15 14-18 23-2 9-3 17-1 24 1 7 4 13 7 17z m218-116c0 40-9 77-29 110-20 34-46 60-80 80-33 20-70 29-110 29-40 0-77-9-110-29-34-20-60-46-80-80-20-33-29-70-29-110 0-40 9-77 29-110 20-34 46-60 80-80 33-20 70-29 110-29 40 0 77 9 110 29 34 20 60 46 80 80 20 33 29 70 29 110z"/>
    </symbol>
  
    <symbol id="icon-rss" viewBox="0 0 512 512">
      <path d="m165 384c0 15-6 28-16 39-11 11-24 16-39 16-16 0-28-5-39-16-11-11-16-24-16-39 0-15 5-28 16-39 11-11 23-16 39-16 15 0 28 5 39 16 10 11 16 24 16 39z m146 35c0 5-1 10-5 14-3 4-8 6-13 6l-39 0c-5 0-9-2-12-5-4-3-6-7-6-12-4-43-22-81-53-112-31-31-68-48-112-52-4-1-8-3-11-6-4-3-5-8-5-12l0-39c0-5 2-10 6-13 3-4 7-5 12-5l2 0c30 2 59 10 87 23 28 13 52 30 74 52 22 21 39 46 52 74 13 28 20 57 23 87z m146 1c1 5-1 9-5 13-3 4-8 6-13 6l-41 0c-5 0-9-2-13-5-3-3-5-8-5-12-3-41-12-80-29-117-17-37-39-69-66-96-27-27-59-49-96-66-37-17-76-27-117-29-5 0-9-2-12-6-3-3-5-8-5-12l0-41c0-5 2-10 6-13 3-4 7-5 12-5l1 0c50 2 98 13 143 34 46 20 86 48 122 84 35 35 63 76 84 121 20 46 32 94 34 144z"/>
    </symbol>
  
    <symbol id="icon-torso-female" viewBox="0 0 512 512">
      <path d="m410 309l-80-38l-34-16c1 0 2-1 3-2l44 0c7 0 13-5 13-12l0-33l0 0c-2-46-18-86-41-111c-13-14-29-24-48-27c0 0-1 0-2 0c-1 0-2-1-3-1c-2 0-4 0-6 0c0 0 0 0 0 0c-2 0-4 0-6 0c-1 0-2 0-3 1c-1 0-2 0-2 0c-18 3-35 12-47 26c-24 26-40 66-42 112l0 0l0 33c0 7 6 12 13 12l44 0c2 1 3 2 4 3l-32 15l-83 38c-7 4-12 12-12 21l0 91c0 12 8 22 19 22l294 0c11 0 19-10 19-22l0-91c0-9-4-17-12-21z"/>
    </symbol>
  
    <symbol id="icon-film" viewBox="0 0 512 512">
      <path d="m91 457l0-36c0-5-1-10-5-13-4-4-8-6-13-6l-36 0c-5 0-10 2-13 6-4 3-6 8-6 13l0 36c0 5 2 9 6 13 3 4 8 5 13 5l36 0c5 0 9-1 13-5 4-4 5-8 5-13z m0-110l0-36c0-5-1-9-5-13-4-4-8-5-13-5l-36 0c-5 0-10 1-13 5-4 4-6 8-6 13l0 36c0 5 2 10 6 13 3 4 8 6 13 6l36 0c5 0 9-2 13-6 4-3 5-8 5-13z m0-109l0-37c0-5-1-9-5-13-4-3-8-5-13-5l-36 0c-5 0-10 2-13 5-4 4-6 8-6 13l0 37c0 5 2 9 6 13 3 3 8 5 13 5l36 0c5 0 9-2 13-5 4-4 5-8 5-13z m293 219l0-146c0-5-2-9-5-13-4-4-8-5-13-5l-220 0c-5 0-9 1-13 5-3 4-5 8-5 13l0 146c0 5 2 9 5 13 4 4 8 5 13 5l220 0c5 0 9-1 13-5 3-4 5-8 5-13z m-293-329l0-37c0-5-1-9-5-12-4-4-8-6-13-6l-36 0c-5 0-10 2-13 6-4 3-6 7-6 12l0 37c0 5 2 9 6 13 3 3 8 5 13 5l36 0c5 0 9-2 13-5 4-4 5-8 5-13z m403 329l0-36c0-5-2-10-6-13-3-4-8-6-13-6l-36 0c-5 0-9 2-13 6-4 3-5 8-5 13l0 36c0 5 1 9 5 13 4 4 8 5 13 5l36 0c5 0 10-1 13-5 4-4 6-8 6-13z m-110-219l0-147c0-5-2-9-5-12-4-4-8-6-13-6l-220 0c-5 0-9 2-13 6-3 3-5 7-5 12l0 147c0 5 2 9 5 13 4 3 8 5 13 5l220 0c5 0 9-2 13-5 3-4 5-8 5-13z m110 109l0-36c0-5-2-9-6-13-3-4-8-5-13-5l-36 0c-5 0-9 1-13 5-4 4-5 8-5 13l0 36c0 5 1 10 5 13 4 4 8 6 13 6l36 0c5 0 10-2 13-6 4-3 6-8 6-13z m0-109l0-37c0-5-2-9-6-13-3-3-8-5-13-5l-36 0c-5 0-9 2-13 5-4 4-5 8-5 13l0 37c0 5 1 9 5 13 4 3 8 5 13 5l36 0c5 0 10-2 13-5 4-4 6-8 6-13z m0-110l0-37c0-5-2-9-6-12-3-4-8-6-13-6l-36 0c-5 0-9 2-13 6-4 3-5 7-5 12l0 37c0 5 1 9 5 13 4 3 8 5 13 5l36 0c5 0 10-2 13-5 4-4 6-8 6-13z m36-46l0 384c0 13-4 24-13 33-9 9-20 13-32 13l-458 0c-12 0-23-4-32-13-9-9-13-20-13-33l0-384c0-12 4-23 13-32 9-9 20-13 32-13l458 0c12 0 23 4 32 13 9 9 13 20 13 32z"/>
    </symbol>
  
    <symbol id="icon-smile-o" viewBox="0 0 512 512">
      <path d="m361 307c-7 23-21 42-40 56-19 14-41 21-65 21-24 0-46-7-65-21-19-14-33-33-40-56-1-5-1-9 2-14 2-4 5-7 10-9 5-1 10-1 14 1 5 3 8 6 9 11 5 16 14 28 27 37 13 10 27 14 43 14 16 0 30-4 43-14 13-9 22-21 27-37 1-5 4-8 9-11 4-2 9-2 14-1 5 2 8 5 10 9 3 5 3 9 2 14z m-142-124c0 10-3 19-10 26-7 7-16 10-26 10-10 0-19-3-26-10-7-7-11-16-11-26 0-10 4-19 11-26 7-7 16-11 26-11 10 0 19 4 26 11 7 7 10 16 10 26z m147 0c0 10-4 19-11 26-7 7-16 10-26 10-10 0-19-3-26-10-7-7-10-16-10-26 0-10 3-19 10-26 7-7 16-11 26-11 10 0 19 4 26 11 7 7 11 16 11 26z m73 73c0-25-5-48-15-71-9-23-22-42-39-58-16-17-35-30-58-39-23-10-46-15-71-15-25 0-48 5-71 15-23 9-42 22-58 39-17 16-30 35-39 58-10 23-15 46-15 71 0 25 5 48 15 71 9 23 22 42 39 58 16 17 35 30 58 39 23 10 46 15 71 15 25 0 48-5 71-15 23-9 42-22 58-39 17-16 30-35 39-58 10-23 15-46 15-71z m36 0c0 40-9 77-29 110-20 34-46 60-80 80-33 20-70 29-110 29-40 0-77-9-110-29-34-20-60-46-80-80-20-33-29-70-29-110 0-40 9-77 29-110 20-34 46-60 80-80 33-20 70-29 110-29 40 0 77 9 110 29 34 20 60 46 80 80 20 33 29 70 29 110z"/>
    </symbol>
  
    <symbol id="icon-vcard" viewBox="0 0 512 512">
      <path d="m461 51c14 0 26 5 36 15c10 10 15 22 15 36c0 0 0 308 0 308c0 13-5 25-15 35c-10 11-22 16-36 16c0 0-410 0-410 0c-13 0-25-5-36-16c-10-10-15-22-15-35c0 0 0-308 0-308c0-14 5-26 15-36c11-10 23-15 36-15c0 0 410 0 410 0m0 359c0 0 0-308 0-308c0 0-410 0-410 0c0 0 0 308 0 308c0 0 410 0 410 0m-231-101c0 0 0 46 0 46c0 0-128 0-128 0c0 0 0-46 0-46c0 0 128 0 128 0m0-77c0 0 0 47 0 47c0 0-128 0-128 0c0 0 0-47 0-47c0 0 128 0 128 0m0-76c0 0 0 46 0 46c0 0-128 0-128 0c0 0 0-46 0-46c0 0 128 0 128 0m178 163c0 0 2 36 2 36c0 0-128 0-128 0c0-24 1-36 3-36c28-7 43-18 43-33c0-6-5-15-14-29c-9-14-14-29-14-45c0-38 15-56 46-56c31 0 46 18 46 56c0 16-5 31-14 45c-10 14-14 23-14 29c0 7 3 13 10 18c7 6 15 9 22 11c0 0 12 4 12 4"/>
    </symbol>
  
    <symbol id="icon-unlock" viewBox="0 0 512 512">
      <path d="m482 233l-218 0l0-71c0-36-14-68-36-92c-22-24-54-39-89-39c-35 0-67 15-89 39c-22 24-36 56-36 92l0 90l31 21l28-21l0-34l-28 0l28-34l0-22c0-21 8-39 20-52c13-13 28-20 46-20c18 0 33 7 46 20c12 13 19 32 19 52l0 72l-21 0c-9 0-17 7-17 16l0 189c0 9 7 13 17 16c9 3 73 26 149 26c76 0 141-23 149-26c10-4 17-7 17-16l0-189c0-9-7-17-16-17z"/>
    </symbol>
  
    <symbol id="icon-link" viewBox="0 0 512 512">
      <path d="m445 67c-51-51-134-51-185 0l-47 47c28-1 57 5 84 18l13-14c23-23 61-23 84 0c23 23 23 61 0 84l-67 67c-23 23-61 23-84 0c-14-14-37-14-51 0c-14 14-14 37 0 51c51 51 135 51 186 0l67-67c51-52 51-135 0-186z m-243 327c-24 23-61 23-84 0c-23-23-23-60 0-83l67-68c23-23 61-23 84 0c14 14 37 14 51 0c14-14 14-37 0-51c-51-51-135-51-186 0l-67 68c-51 51-51 134 0 185c51 51 134 51 186 0l46-47c-28 1-57-5-83-18z"/>
    </symbol>
  
    <symbol id="icon-shopping-cart" viewBox="0 0 512 512">
      <path d="m199 415c0 16-14 30-30 30c-17 0-30-14-30-30c0-17 13-30 30-30c16 0 30 13 30 30z m212 0c0 16-14 30-31 30c-16 0-30-14-30-30c0-17 14-30 30-30c17 0 31 13 31 30z m-35-132c7 0 13-4 16-10l0 0l75-130l0 0c1-2 2-5 2-7c0-10-8-18-18-18l-274 0l0-33c0-10-8-18-18-18l-97 0l0 0c0 0-1 0-1 0c-9 0-16 7-17 16l-1 0l0 17c0 10 8 18 18 18c0 0 1 0 1 0l0 0l64 0l0 224l0 0c0 10 8 17 17 17c0 0 0 0 0 0l304 0l0 0c8-1 15-7 16-15l0 0l0-2c0 0 0-1 0-1c0 0 0 0 0 0l0-15c0 0 0 0 0 0c0-9-7-17-16-18l0 0l-270 0l0-25l199 0z"/>
    </symbol>
  
    <symbol id="icon-comment" viewBox="0 0 512 512">
      <path d="m512 256c0 33-11 64-34 92-23 28-54 50-93 66-40 17-83 25-129 25-13 0-27-1-41-2-38 33-82 56-132 69-9 2-20 4-32 6-4 0-7 0-9-3-3-2-4-4-5-8l0 0c-1-1-1-2 0-4 0-1 0-2 0-2 0-1 1-2 2-3l1-3 2-2 3-3c1-1 4-5 8-10 5-5 8-8 10-10 2-3 5-6 9-12 4-5 7-10 9-14 3-5 5-10 8-17 3-7 5-14 8-22-30-17-54-38-71-63-17-25-26-51-26-80 0-25 7-48 20-71 14-23 32-42 55-58 23-17 50-30 82-39 31-10 64-15 99-15 46 0 89 8 129 25 39 16 70 38 93 66 23 28 34 59 34 92z"/>
    </symbol>
  
    <symbol id="icon-read-more" viewBox="0 0 512 512">
      <path d="m512 64l-512 0l0-64l512 0z m-192 128l-320 0l0-64l320 0z m192 129l-512 0l0-64l512 0z m-448 159c0 18-14 32-32 32c-18 0-32-14-32-32c0-18 14-32 32-32c18 0 32 14 32 32z m128 0c0 18-14 32-32 32c-18 0-32-14-32-32c0-18 14-32 32-32c18 0 32 14 32 32z m128 0c0 18-14 32-32 32c-18 0-32-14-32-32c0-18 14-32 32-32c18 0 32 14 32 32z"/>
    </symbol>
  
    <symbol id="icon-exclamation-circle" viewBox="0 0 512 512">
      <path d="m256 37c40 0 77 9 110 29 34 20 60 46 80 80 20 33 29 70 29 110 0 40-9 77-29 110-20 34-46 60-80 80-33 20-70 29-110 29-40 0-77-9-110-29-34-20-60-46-80-80-20-33-29-70-29-110 0-40 9-77 29-110 20-34 46-60 80-80 33-20 70-29 110-29z m37 356l0-54c0-3-1-5-3-7-2-2-4-3-6-3l-55 0c-3 0-5 1-7 3-2 2-3 4-3 7l0 54c0 2 1 5 3 6 2 2 4 3 7 3l55 0c2 0 4-1 6-2 2-2 3-4 3-7z m-1-98l5-178c0-2-1-4-3-5-2-2-4-2-7-2l-62 0c-3 0-5 0-7 2-2 1-3 3-3 5l5 178c0 1 1 3 3 5 1 1 4 2 6 2l53 0c3 0 5-1 7-2 2-2 3-4 3-5z"/>
    </symbol>
  
    <symbol id="icon-exclamation-triangle" viewBox="0 0 512 512">
      <path d="m293 393l0-54c0-3-1-5-3-7-2-2-4-3-7-3l-54 0c-3 0-5 1-7 3-2 2-3 4-3 7l0 54c0 3 1 5 3 7 2 1 4 2 7 2l54 0c3 0 5-1 7-2 2-2 3-4 3-7z m-1-107l5-131c0-2-1-4-3-6-2-2-4-3-7-3l-62 0c-3 0-5 1-7 3-2 2-3 4-3 6l5 131c0 2 1 3 3 5 1 1 4 2 6 2l53 0c3 0 5-1 7-2 2-2 3-3 3-5z m-4-267l219 402c7 12 7 24 0 36-3 6-8 10-13 14-6 3-12 4-19 4l-438 0c-7 0-13-1-19-4-5-4-10-8-13-14-7-12-7-24 0-36l219-402c3-6 8-10 13-14 6-3 12-5 19-5 7 0 13 2 19 5 5 4 10 8 13 14z"/>
    </symbol>
  
    <symbol id="icon-check-circle" viewBox="0 0 512 512">
      <path d="m403 210c0-6-1-10-5-13l-26-26c-3-4-8-6-13-6-5 0-9 2-12 6l-117 116-65-64c-3-4-7-6-12-6-5 0-10 2-13 6l-26 25c-4 4-5 8-5 13 0 6 1 10 5 13l103 104c4 3 8 5 13 5 5 0 10-2 13-5l155-155c4-4 5-8 5-13z m72 46c0 40-9 77-29 110-20 34-46 60-80 80-33 20-70 29-110 29-40 0-77-9-110-29-34-20-60-46-80-80-20-33-29-70-29-110 0-40 9-77 29-110 20-34 46-60 80-80 33-20 70-29 110-29 40 0 77 9 110 29 34 20 60 46 80 80 20 33 29 70 29 110z"/>
    </symbol>
  
</svg>
